<?xml version="1.0" encoding="UTF-8"?>
<!DOCTYPE svg PUBLIC "-//W3C//DTD SVG 1.1//EN" "http://www.w3.org/Graphics/SVG/1.1/DTD/svg11.dtd">
<svg xmlns="http://www.w3.org/2000/svg" version="1.1" width="2400px" height="2400px" style="shape-rendering:geometricPrecision; text-rendering:geometricPrecision; image-rendering:optimizeQuality; fill-rule:evenodd; clip-rule:evenodd" xmlns:xlink="http://www.w3.org/1999/xlink">
<g><path style="opacity:0.994" fill="#ca3131" d="M 1346.5,104.5 C 1356.61,114.7 1364.78,126.367 1371,139.5C 1390,183.801 1392.67,229.134 1379,275.5C 1365.4,316.709 1345.07,354.042 1318,387.5C 1293.94,417.232 1267.44,444.732 1238.5,470C 1211.21,492.291 1184.21,514.957 1157.5,538C 1128.44,565.046 1105.61,596.546 1089,632.5C 1073.96,673.355 1075.29,713.689 1093,753.5C 1100.22,768.945 1108.22,783.945 1117,798.5C 1137.91,828.66 1158.58,858.993 1179,889.5C 1186.43,901.355 1193.1,913.688 1199,926.5C 1199.67,927.5 1199.67,928.5 1199,929.5C 1148.93,885.434 1102.27,838.101 1059,787.5C 1041.83,765.852 1027.17,742.519 1015,717.5C 990.06,663.311 996.06,612.978 1033,566.5C 1056.5,537.667 1082.67,511.5 1111.5,488C 1143.17,463 1174.83,438 1206.5,413C 1237.89,387.95 1267.05,360.45 1294,330.5C 1350.9,264.541 1368.4,189.208 1346.5,104.5 Z"/></g>
<g><path style="opacity:0.994" fill="#ca3132" d="M 1533.5,411.5 C 1535.84,411.775 1535.84,412.608 1533.5,414C 1478.07,445.127 1425.07,479.793 1374.5,518C 1355.46,533.029 1337.63,549.529 1321,567.5C 1308.48,581.851 1298.48,597.851 1291,615.5C 1282.86,639.335 1284.19,662.668 1295,685.5C 1302.54,700.351 1310.87,714.685 1320,728.5C 1331,743.833 1342,759.167 1353,774.5C 1375.95,811.927 1376.28,849.594 1354,887.5C 1338.05,912.459 1318.21,933.959 1294.5,952C 1280.52,962.661 1265.85,972.327 1250.5,981C 1249.5,981.667 1248.5,981.667 1247.5,981C 1270.98,960.85 1286.15,935.683 1293,905.5C 1296.49,882.605 1292.15,861.272 1280,841.5C 1269.38,827.213 1258.38,813.213 1247,799.5C 1228.61,775.389 1214.94,748.722 1206,719.5C 1194.75,678.245 1199.42,638.912 1220,601.5C 1238.19,570.972 1261.69,545.138 1290.5,524C 1332.91,493.283 1378.58,467.95 1427.5,448C 1462.35,434.106 1497.68,421.94 1533.5,411.5 Z"/></g>
<g><path style="opacity:0.984" fill="#3173b9" d="M 1615.5,916.5 C 1660.11,913.576 1697.61,928.243 1728,960.5C 1751.55,991.668 1756.55,1025.67 1743,1062.5C 1732.55,1087.29 1717.05,1108.46 1696.5,1126C 1666.37,1150.75 1633.03,1170.41 1596.5,1185C 1568.86,1196.44 1540.53,1205.44 1511.5,1212C 1513.5,1209.33 1515.5,1206.67 1517.5,1204C 1565.86,1180.41 1609.03,1149.57 1647,1111.5C 1662.2,1095.12 1673.86,1076.46 1682,1055.5C 1696.39,1003.45 1679.22,965.953 1630.5,943C 1614.67,936.685 1598.33,934.685 1581.5,937C 1569.37,939.158 1557.53,942.325 1546,946.5C 1545.33,945.5 1545.33,944.5 1546,943.5C 1557.22,930.636 1571.39,923.136 1588.5,921C 1597.59,919.157 1606.59,917.657 1615.5,916.5 Z"/></g>
<g><path style="opacity:0.985" fill="#3173b9" d="M 1007.5,930.5 C 1014.62,930.075 1021.62,930.575 1028.5,932C 993.273,940.473 958.607,950.806 924.5,963C 912.475,967.512 900.809,972.845 889.5,979C 884.212,982.232 879.378,986.065 875,990.5C 872.296,993.999 871.963,997.666 874,1001.5C 883.321,1008.57 893.821,1013.07 905.5,1015C 940.553,1021.18 975.886,1024.52 1011.5,1025C 1181.47,1028.26 1350.14,1015.1 1517.5,985.5C 1517.83,985.833 1518.17,986.167 1518.5,986.5C 1493.96,997.581 1470.3,1010.08 1447.5,1024C 1373.84,1041.83 1299.17,1053.17 1223.5,1058C 1118.13,1065.65 1012.8,1065.32 907.5,1057C 874.092,1054.15 841.092,1048.82 808.5,1041C 797.379,1038.18 786.713,1034.18 776.5,1029C 759.351,1017.95 759.351,1006.61 776.5,995C 848.806,956.508 925.806,935.008 1007.5,930.5 Z"/></g>
<g><path style="opacity:0.989" fill="#3173b9" d="M 961.5,1101.5 C 962.552,1101.35 963.552,1101.52 964.5,1102C 956.822,1108.34 950.655,1115.84 946,1124.5C 942.524,1134.07 945.024,1141.57 953.5,1147C 964.803,1152.88 976.803,1156.55 989.5,1158C 1103.13,1172.36 1216.47,1170.36 1329.5,1152C 1352.82,1148.42 1375.98,1144.25 1399,1139.5C 1417.25,1156.39 1438.08,1169.23 1461.5,1178C 1312.69,1221.12 1161.35,1233.46 1007.5,1215C 978.418,1210.98 950.084,1203.98 922.5,1194C 909.24,1189.13 897.74,1181.63 888,1171.5C 881.734,1161.29 882.067,1151.29 889,1141.5C 901.533,1129.14 916.033,1119.64 932.5,1113C 942.255,1109.11 951.922,1105.28 961.5,1101.5 Z"/></g>
<g><path style="opacity:0.99" fill="#3173b9" d="M 998.5,1265.5 C 999.376,1265.37 1000.04,1265.7 1000.5,1266.5C 994.144,1270.69 988.977,1276.02 985,1282.5C 983.96,1286.53 984.626,1290.2 987,1293.5C 990.293,1296.79 994.127,1299.29 998.5,1301C 1009.23,1304.77 1020.23,1307.43 1031.5,1309C 1110.43,1320.68 1189.43,1321.35 1268.5,1311C 1295.77,1307.09 1322.93,1302.59 1350,1297.5C 1351.17,1297.67 1352.33,1297.83 1353.5,1298C 1379.65,1313.05 1406.65,1326.38 1434.5,1338C 1364.56,1367.72 1291.56,1384.72 1215.5,1389C 1148.33,1393.84 1081.99,1388.51 1016.5,1373C 992.424,1366.96 969.757,1357.62 948.5,1345C 941.333,1340.5 935.5,1334.67 931,1327.5C 925.937,1317.74 926.604,1308.41 933,1299.5C 942.528,1289.65 953.695,1282.15 966.5,1277C 977.162,1272.84 987.828,1269 998.5,1265.5 Z"/></g>
<g><path style="opacity:0.986" fill="#3173b9" d="M 831.5,1374.5 C 846.004,1373.78 860.338,1374.94 874.5,1378C 878.112,1379.14 881.446,1380.81 884.5,1383C 837.66,1385.39 793.66,1397.73 752.5,1420C 748.367,1423.13 744.534,1426.63 741,1430.5C 738.189,1439.08 741.022,1445.25 749.5,1449C 783.941,1462.86 819.607,1472.19 856.5,1477C 906.264,1484.18 956.264,1488.84 1006.5,1491C 1153.48,1497.49 1300.15,1493.16 1446.5,1478C 1496.74,1473.01 1546.4,1464.68 1595.5,1453C 1615.96,1448.3 1634.96,1440.3 1652.5,1429C 1668.27,1416.29 1669.27,1402.62 1655.5,1388C 1665.43,1391.06 1673.93,1396.56 1681,1404.5C 1686.57,1412.29 1686.9,1420.29 1682,1428.5C 1674.34,1438.82 1664.84,1446.99 1653.5,1453C 1625.14,1467.68 1595.47,1479.01 1564.5,1487C 1495.15,1504.84 1424.81,1517.17 1353.5,1524C 1151.83,1542.77 950.83,1537.1 750.5,1507C 723.245,1504.02 696.579,1498.35 670.5,1490C 638.249,1476.89 634.915,1458.55 660.5,1435C 686.489,1416.51 714.822,1402.51 745.5,1393C 773.661,1383.8 802.327,1377.64 831.5,1374.5 Z"/></g>
<g><path style="opacity:0.978" fill="#3173b8" d="M 1750.5,1463.5 C 1749.82,1478.56 1744.32,1491.89 1734,1503.5C 1717.01,1520.26 1697.51,1533.42 1675.5,1543C 1646.36,1555.27 1616.36,1564.94 1585.5,1572C 1511.97,1587.89 1437.64,1597.89 1362.5,1602C 1265.19,1607.59 1167.85,1607.92 1070.5,1603C 1011.22,1600.42 952.557,1593.09 894.5,1581C 876.181,1577.23 858.847,1570.89 842.5,1562C 1025.8,1586.29 1209.46,1588.96 1393.5,1570C 1474.09,1562.01 1553.42,1547.35 1631.5,1526C 1658.38,1518.23 1684.38,1508.23 1709.5,1496C 1719.01,1491.08 1728.01,1485.42 1736.5,1479C 1741.74,1474.26 1746.41,1469.09 1750.5,1463.5 Z"/></g>
<g><path style="opacity:0.998" fill="#ca3131" d="M 684.5,1703.5 C 709.833,1703.5 735.167,1703.5 760.5,1703.5C 760.667,1844.17 760.5,1984.83 760,2125.5C 762.966,2201.79 730.132,2255.96 661.5,2288C 656.316,2290.17 651.15,2292.34 646,2294.5C 634.167,2280.67 622.333,2266.83 610.5,2253C 631.708,2241.13 649.874,2225.63 665,2206.5C 674.633,2191.6 680.3,2175.27 682,2157.5C 682.932,2149.52 683.598,2141.52 684,2133.5C 684.5,1990.17 684.667,1846.83 684.5,1703.5 Z"/></g>
<g><path style="opacity:0.995" fill="#ca3032" d="M 938.5,1819.5 C 962.435,1818.19 986.101,1820.02 1009.5,1825C 1057.88,1838.74 1082.04,1870.91 1082,1921.5C 1082.5,2004.5 1082.67,2087.5 1082.5,2170.5C 1063.5,2170.5 1044.5,2170.5 1025.5,2170.5C 1024.27,2158.08 1022.44,2145.75 1020,2133.5C 975.009,2174.9 923.176,2186.73 864.5,2169C 831.241,2155.03 813.407,2129.86 811,2093.5C 807.56,2037.29 832.06,1999.13 884.5,1979C 911.071,1969.9 938.404,1964.9 966.5,1964C 981.163,1963.5 995.83,1963.33 1010.5,1963.5C 1010.67,1949.5 1010.5,1935.5 1010,1921.5C 1005.41,1891.59 987.914,1875.42 957.5,1873C 933.915,1871.23 910.582,1872.9 887.5,1878C 871.009,1882.04 854.676,1886.54 838.5,1891.5C 835.406,1877.29 832.073,1863.12 828.5,1849C 828.645,1848.23 828.978,1847.56 829.5,1847C 864.494,1832 900.827,1822.84 938.5,1819.5 Z M 960.5,2009.5 C 977.167,2009.5 993.833,2009.5 1010.5,2009.5C 1010.67,2036.5 1010.5,2063.5 1010,2090.5C 988.623,2110.1 963.456,2121.44 934.5,2124.5C 900.279,2123.11 882.613,2105.28 881.5,2071C 882.32,2042.17 896.654,2023.84 924.5,2016C 936.469,2012.85 948.469,2010.68 960.5,2009.5 Z"/></g>
<g><path style="opacity:0.994" fill="#ca3132" d="M 1579.5,1819.5 C 1603.77,1818.18 1627.77,1820.01 1651.5,1825C 1694.05,1836.26 1717.88,1863.76 1723,1907.5C 1723.5,1995.17 1723.67,2082.83 1723.5,2170.5C 1704.83,2170.5 1686.17,2170.5 1667.5,2170.5C 1665.9,2158.14 1664.07,2145.81 1662,2133.5C 1615.91,2175.56 1563.08,2187.06 1503.5,2168C 1472.64,2153.78 1455.81,2129.61 1453,2095.5C 1448.54,2038.22 1473.04,1999.39 1526.5,1979C 1553.05,1969.76 1580.38,1964.76 1608.5,1964C 1623.16,1963.5 1637.83,1963.33 1652.5,1963.5C 1652.67,1950.16 1652.5,1936.83 1652,1923.5C 1648.33,1892.5 1630.83,1875.66 1599.5,1873C 1559.88,1870.66 1521.54,1876.66 1484.5,1891C 1483.06,1891.78 1481.72,1891.61 1480.5,1890.5C 1477.01,1876.88 1473.68,1863.21 1470.5,1849.5C 1470.61,1848.56 1470.94,1847.72 1471.5,1847C 1506.11,1831.85 1542.11,1822.68 1579.5,1819.5 Z M 1602.5,2009.5 C 1619.17,2009.5 1635.83,2009.5 1652.5,2009.5C 1652.67,2036.5 1652.5,2063.5 1652,2090.5C 1635.24,2105.22 1616.08,2115.72 1594.5,2122C 1543.49,2129.66 1520.32,2107.82 1525,2056.5C 1530.54,2034.63 1544.37,2021.13 1566.5,2016C 1578.47,2012.84 1590.47,2010.68 1602.5,2009.5 Z"/></g>
<g><path style="opacity:0.994" fill="#ca3131" d="M 1122.5,1825.5 C 1148.5,1825.5 1174.5,1825.5 1200.5,1825.5C 1221.69,1895.24 1243.19,1964.91 1265,2034.5C 1270,2055.83 1275,2077.17 1280,2098.5C 1312.07,2009.87 1334.57,1918.87 1347.5,1825.5C 1372.84,1825.33 1398.17,1825.5 1423.5,1826C 1402.89,1942.82 1368.39,2055.32 1320,2163.5C 1318.96,2165.75 1317.79,2167.91 1316.5,2170C 1286.93,2170.83 1257.43,2170.66 1228,2169.5C 1192.52,2054.91 1157.36,1940.24 1122.5,1825.5 Z"/></g>
<g><path style="opacity:0.93" fill="#ca3132" d="M 1729.5,1825.5 C 1737.17,1825.5 1744.83,1825.5 1752.5,1825.5C 1752.5,1827.5 1752.5,1829.5 1752.5,1831.5C 1749.83,1831.5 1747.17,1831.5 1744.5,1831.5C 1744.5,1839.17 1744.5,1846.83 1744.5,1854.5C 1742.17,1854.5 1739.83,1854.5 1737.5,1854.5C 1737.5,1846.83 1737.5,1839.17 1737.5,1831.5C 1734.83,1831.5 1732.17,1831.5 1729.5,1831.5C 1729.5,1829.5 1729.5,1827.5 1729.5,1825.5 Z"/></g>
<g><path style="opacity:0.947" fill="#ca3132" d="M 1756.5,1825.5 C 1759.57,1825.18 1762.57,1825.52 1765.5,1826.5C 1767.67,1832.17 1769.83,1837.83 1772,1843.5C 1774.72,1838.03 1777.05,1832.36 1779,1826.5C 1782.06,1825.55 1785.22,1825.22 1788.5,1825.5C 1788.5,1835.17 1788.5,1844.83 1788.5,1854.5C 1786.17,1854.5 1783.83,1854.5 1781.5,1854.5C 1781.67,1848.82 1781.5,1843.16 1781,1837.5C 1779,1842.83 1777,1848.17 1775,1853.5C 1773.3,1854.41 1771.47,1854.74 1769.5,1854.5C 1767.64,1848.09 1765.47,1841.76 1763,1835.5C 1762.5,1841.82 1762.33,1848.16 1762.5,1854.5C 1760.5,1854.5 1758.5,1854.5 1756.5,1854.5C 1756.5,1844.83 1756.5,1835.17 1756.5,1825.5 Z"/></g>
</svg>
